<svg width="41" height="40" viewBox="0 0 41 40" fill="none" xmlns="http://www.w3.org/2000/svg">
<g clip-path="url(#clip0_207_11345)">
<path d="M29.2432 40H12.8075C11.8383 40 11.0498 39.2115 11.0498 38.2423V37.4545C6.94545 35.562 2.58901 29.9476 2.58901 26.4439C2.58901 25.4747 3.37755 24.6862 4.34671 24.6862H7.00607C7.32972 24.6862 7.59197 24.9484 7.59197 25.2721C7.59197 25.5957 7.32972 25.858 7.00607 25.858H4.34671C4.02361 25.858 3.76081 26.1208 3.76081 26.4439C3.76081 27.8441 4.7434 29.9666 6.3251 31.9831C7.94624 34.0499 9.9669 35.7241 11.7528 36.4846H23.8435C24.1672 36.4846 24.4294 36.7469 24.4294 37.0705C24.4294 37.3942 24.1672 37.6564 23.8435 37.6564H12.2216V38.2423C12.2216 38.5654 12.4844 38.8282 12.8075 38.8282H29.2432C29.5663 38.8282 29.8291 38.5654 29.8291 38.2423V37.6564H26.1873C25.8636 37.6564 25.6014 37.3942 25.6014 37.0705C25.6014 36.7469 25.8636 36.4846 26.1873 36.4846H30.2979C32.0838 35.7241 34.1045 34.0499 35.7256 31.9831C37.3072 29.9665 38.2898 27.8441 38.2898 26.4439C38.2898 26.1208 38.027 25.858 37.7039 25.858H31.0199L29.5387 27.3393C29.4288 27.4491 29.2798 27.5108 29.1243 27.5108C28.9689 27.5108 28.82 27.4491 28.71 27.3393L26.0417 24.671C25.8129 24.4421 25.8129 24.0711 26.0417 23.8423C26.2706 23.6136 26.6415 23.6136 26.8703 23.8423L29.1243 26.0964L30.8684 24.3523C30.9791 24.2417 31.04 24.0946 31.04 23.938C31.04 23.7815 30.9791 23.6344 30.8684 23.5238L27.7858 20.4411L21.4845 26.7424L24.5671 29.8249C24.7956 30.0536 25.1673 30.0534 25.3957 29.8249L25.81 29.4106L23.5559 27.1566C23.3271 26.9278 23.3271 26.5568 23.5559 26.328C23.7848 26.0993 24.1557 26.0993 24.3844 26.328L26.6385 28.5821L27.0694 28.1511C27.2984 27.9223 27.6693 27.9225 27.898 28.1511C28.1268 28.38 28.1268 28.7509 27.898 28.9797L26.2242 30.6535C25.8922 30.9855 25.4508 31.1683 24.9813 31.1683C24.5117 31.1683 24.0704 30.9855 23.7384 30.6535L20.5854 27.5005C20.0247 27.7693 19.3471 27.7265 18.8132 27.3494L16.7011 25.8578C16.6977 25.8579 16.6943 25.8579 16.6908 25.8579H16.3227C15.3536 25.8579 14.565 26.6464 14.565 27.6156V30.854C14.565 31.3322 14.3665 31.7958 14.0205 32.1259C13.6694 32.4607 13.2097 32.6329 12.723 32.6096C11.7847 32.5654 11.0496 31.7797 11.0496 30.8209V25.8579H9.34951C9.02586 25.8579 8.76361 25.5957 8.76361 25.272C8.76361 24.9484 9.02586 24.6861 9.34951 24.6861H15.042L14.5352 24.3281C13.9603 23.9222 13.6835 23.215 13.8299 22.5266L14.5838 18.9824C14.9084 17.4559 14.4434 15.8858 13.3399 14.7824L1.55314 2.99563C1.21504 2.65745 1.02755 2.18927 1.03888 1.7111C1.05028 1.22613 1.25464 0.778817 1.61415 0.451728C2.30895 -0.180653 3.38419 -0.144874 4.06235 0.533207L15.8259 12.2967C16.9293 13.4003 18.4997 13.8653 20.0259 13.5406C20.3422 13.4732 20.6536 13.6753 20.7209 13.9917C20.7882 14.3083 20.5862 14.6193 20.2697 14.6867C18.3538 15.0945 16.3825 14.5105 14.9973 13.1254L3.23374 1.36183C3.00289 1.13082 2.6301 1.11137 2.40285 1.31831C2.28255 1.42776 2.21419 1.57712 2.21036 1.73868C2.20654 1.90046 2.26739 2.05264 2.38176 2.16701L14.1687 13.9538C15.5539 15.339 16.1377 17.3101 15.7301 19.2263L14.9763 22.7705C14.9274 23 15.0198 23.2357 15.2113 23.371L19.4894 26.3924C19.7232 26.5574 20.0395 26.5304 20.2418 26.3281L27.3716 19.1982C27.5739 18.9959 27.6009 18.6795 27.4359 18.4459L24.4146 14.1679C24.2793 13.9764 24.0436 13.8838 23.8141 13.9328L22.7115 14.1673C22.3952 14.2344 22.0839 14.0326 22.0165 13.716C21.9493 13.3996 22.1513 13.0884 22.4677 13.0211L23.5702 12.7866C24.2584 12.64 24.9655 12.917 25.3716 13.4918L28.393 17.7698C28.7699 18.3036 28.8128 18.9812 28.544 19.5421L31.6971 22.6951C32.2346 23.2327 32.3505 24.0345 32.0448 24.6861H37.7039C38.6731 24.6861 39.4616 25.4746 39.4616 26.4438C39.4616 29.9476 35.1052 35.562 31.0009 37.4544V38.2423C31.0009 39.2116 30.2124 40 29.2432 40ZM12.2216 25.858V30.8209C12.2216 31.1474 12.4713 31.4247 12.7784 31.4392C12.9405 31.4472 13.0947 31.3897 13.2118 31.278C13.3289 31.1663 13.3934 31.0158 13.3934 30.854V27.6156C13.3934 26.9567 13.6121 26.3478 13.9807 25.8579H12.2216V25.858Z" fill="#156778"/>
</g>
<defs>
<clipPath id="clip0_207_11345">
<rect width="40" height="40" fill="white" transform="translate(0.25)"/>
</clipPath>
</defs>
</svg>
