<svg width="41" height="40" viewBox="0 0 41 40" fill="none" xmlns="http://www.w3.org/2000/svg">
<g clip-path="url(#clip0_207_11340)">
<path d="M20.5005 40C19.3337 40 18.1677 39.6644 17.1543 38.994C14.2541 37.0755 12.1773 34.9906 10.8053 32.6201C9.46797 30.3096 8.75764 27.6712 8.64334 24.5781C5.23607 20.1193 5.20037 13.9043 8.57826 9.39555C9.52274 8.13497 10.6741 7.0776 12.0005 6.25281L15.3319 4.18128C15.841 1.79528 17.9654 0 20.5011 0C21.8352 0 23.1095 0.498841 24.0891 1.40465L29.3233 6.24438C29.561 6.46407 29.5754 6.83478 29.3557 7.07245C29.136 7.31003 28.7652 7.32456 28.5277 7.10487L23.2935 2.26514C22.5311 1.56012 21.5394 1.1719 20.5011 1.1719C18.2331 1.1719 16.388 3.01703 16.388 5.28506C16.388 6.0425 16.5953 6.78252 16.9878 7.42511C17.1564 7.70129 17.0692 8.06192 16.793 8.2306C16.5167 8.3992 16.1562 8.31201 15.9876 8.03583C15.5421 7.30628 15.282 6.4797 15.2271 5.62663L12.6195 7.24807C11.4172 7.99567 10.3731 8.9546 9.51625 10.0983C9.51469 10.1003 9.51321 10.1023 9.51172 10.1043C9.51078 10.1056 9.50961 10.1071 9.50867 10.1084C9.50813 10.1092 9.50774 10.1096 9.50719 10.1103C6.80736 13.7239 6.52235 18.5512 8.6299 22.4124C8.67522 20.2566 9.2782 17.7576 12.785 15.3116C13.8174 14.5915 17.1146 12.4122 19.4317 10.8906C18.8593 10.519 18.2571 10.1287 17.6237 9.71892C17.352 9.54313 17.2743 9.18039 17.45 8.90866C17.6258 8.63686 17.9886 8.55912 18.2603 8.73499C23.3017 11.9966 26.3725 14.0249 28.2171 15.3116C31.724 17.7576 32.327 20.2565 32.3723 22.4123C34.4819 18.5467 34.1939 13.7128 31.4859 10.0982C31.0683 9.54094 30.6163 9.03609 30.1423 8.5978C29.9047 8.3781 29.8902 8.00739 30.1099 7.76973C30.3296 7.53207 30.7003 7.51753 30.938 7.73731C31.4639 8.22372 31.9638 8.78155 32.4239 9.39547C35.7982 13.8994 35.7644 20.1211 32.3585 24.5784C32.2116 28.4949 31.0962 31.7364 28.9614 34.4638C28.762 34.7186 28.3938 34.7636 28.1389 34.5641C27.8841 34.3646 27.8392 33.9963 28.0387 33.7416C30.1978 30.983 31.2034 27.7838 31.2034 23.6733V22.7003C31.2034 20.6866 30.7605 18.5141 27.5469 16.2727C26.0939 15.2592 23.8695 13.7789 20.5047 11.5881C17.7676 13.3832 14.4233 15.5977 13.4555 16.2727C10.2419 18.5142 9.79892 20.6866 9.79892 22.7003V23.6733C9.79892 26.9492 10.4599 29.6836 11.8197 32.033C13.0989 34.2431 15.0555 36.2003 17.801 38.0165C19.4172 39.0857 21.5151 39.0997 23.1456 38.0524L23.2075 38.0126C24.5858 37.1007 25.6431 36.2738 26.5288 35.4143C26.7611 35.1889 27.132 35.1944 27.3573 35.4266C27.5827 35.6589 27.5772 36.0298 27.345 36.2551C26.4058 37.1666 25.2946 38.0369 23.848 38.9939L23.7796 39.038C22.7805 39.6797 21.6401 39.9999 20.5005 40V40ZM20.5011 36.4208C19.5288 36.4208 18.6889 36.1722 17.858 35.6387C17.5857 35.4639 17.5068 35.1014 17.6816 34.829C17.8566 34.5567 18.219 34.4778 18.4913 34.6526C19.1334 35.065 19.7532 35.2489 20.5011 35.2489C21.2488 35.2489 21.8687 35.065 22.5107 34.6527C22.7831 34.4779 23.1455 34.5569 23.3204 34.8291C23.4953 35.1014 23.4163 35.4639 23.144 35.6388C22.3132 36.1722 21.4733 36.4208 20.5011 36.4208V36.4208ZM22.7403 33.4682H18.2608C17.3282 33.4682 16.4225 33.0732 15.7763 32.3844C15.5548 32.1484 15.5666 31.7776 15.8026 31.5562C16.0386 31.3348 16.4094 31.3465 16.6308 31.5825C17.0564 32.0361 17.6505 32.2963 18.2608 32.2963H22.7402C23.351 32.2963 23.9455 32.0361 24.3712 31.5825C24.5926 31.3466 24.9634 31.3349 25.1994 31.5562C25.4354 31.7776 25.4472 32.1485 25.2257 32.3845C24.5796 33.0732 23.6736 33.4682 22.7403 33.4682V33.4682ZM20.5011 30.5413C18.7794 30.5413 17.9754 29.3003 17.9421 29.2474C17.7693 28.9739 17.8509 28.6119 18.1244 28.439C18.3964 28.267 18.7559 28.3469 18.9299 28.6168C18.9571 28.6574 19.4495 29.3693 20.5011 29.3693C21.567 29.3693 22.0648 28.6288 22.0695 28.6213C22.2424 28.3477 22.6044 28.2661 22.8779 28.439C23.1514 28.6119 23.2331 28.9738 23.0602 29.2474C23.0267 29.3004 22.2226 30.5413 20.5011 30.5413V30.5413ZM25.9337 26.9448C23.5932 26.9448 21.6892 25.0407 21.6892 22.7003C21.6892 20.36 23.5933 18.4559 25.9337 18.4559C28.2741 18.4559 30.1782 20.3599 30.1782 22.7003C30.1782 25.0408 28.2741 26.9448 25.9337 26.9448V26.9448ZM25.9337 19.6278C24.2394 19.6278 22.8611 21.0062 22.8611 22.7003C22.8611 24.3946 24.2395 25.7729 25.9337 25.7729C27.6279 25.7729 29.0063 24.3945 29.0063 22.7003C29.0063 21.0062 27.628 19.6278 25.9337 19.6278V19.6278ZM15.0683 26.9448C12.7279 26.9448 10.8239 25.0407 10.8239 22.7003C10.8239 20.36 12.7279 18.4559 15.0683 18.4559C17.4088 18.4559 19.3128 20.3599 19.3128 22.7003C19.3128 25.0408 17.4088 26.9448 15.0683 26.9448V26.9448ZM15.0683 19.6278C13.3741 19.6278 11.9958 21.0062 11.9958 22.7003C11.9958 24.3946 13.3741 25.7729 15.0683 25.7729C16.7626 25.7729 18.1409 24.3945 18.1409 22.7003C18.1409 21.0062 16.7626 19.6278 15.0683 19.6278V19.6278ZM25.9337 24.601C25.6101 24.601 25.3477 24.3387 25.3477 24.0151V23.7982C25.3477 23.4746 25.6101 23.2122 25.9337 23.2122C26.2573 23.2122 26.5196 23.4746 26.5196 23.7982V24.0151C26.5196 24.3387 26.2574 24.601 25.9337 24.601ZM15.0683 24.601C14.7447 24.601 14.4824 24.3387 14.4824 24.0151V23.7982C14.4824 23.4746 14.7447 23.2122 15.0683 23.2122C15.3919 23.2122 15.6543 23.4746 15.6543 23.7982V24.0151C15.6543 24.3387 15.3919 24.601 15.0683 24.601ZM16.0196 22.7375C15.8171 22.7375 15.6202 22.6325 15.5117 22.4445C15.3498 22.1642 15.4459 21.8059 15.7261 21.6441L15.9138 21.5356C16.194 21.3738 16.5524 21.4697 16.7143 21.75C16.8762 22.0302 16.7802 22.3886 16.4999 22.5504L16.3122 22.6589C16.2199 22.7121 16.1191 22.7375 16.0196 22.7375V22.7375ZM26.885 22.7375C26.6825 22.7375 26.4855 22.6325 26.377 22.4445C26.2152 22.1642 26.3112 21.8059 26.5914 21.6441L26.7793 21.5356C27.0594 21.3739 27.4179 21.4698 27.5797 21.7501C27.7415 22.0303 27.6455 22.3887 27.3652 22.5505L27.1774 22.6589C27.0852 22.7121 26.9844 22.7375 26.885 22.7375ZM24.9824 22.7375C24.883 22.7375 24.7823 22.7122 24.69 22.6589L24.5022 22.5505C24.2219 22.3887 24.1259 22.0303 24.2877 21.7501C24.4495 21.4698 24.8078 21.3737 25.0881 21.5356L25.2759 21.6441C25.5562 21.8059 25.6522 22.1642 25.4904 22.4445C25.3819 22.6325 25.1849 22.7375 24.9824 22.7375ZM14.1171 22.7375C14.0177 22.7375 13.9169 22.7122 13.8246 22.6589L13.6368 22.5505C13.3566 22.3887 13.2606 22.0303 13.4224 21.7501C13.5842 21.4698 13.9425 21.3737 14.2228 21.5356L14.4106 21.6441C14.6908 21.8059 14.7869 22.1642 14.6251 22.4445C14.5165 22.6325 14.3196 22.7375 14.1171 22.7375Z" fill="#156778"/>
</g>
<defs>
<clipPath id="clip0_207_11340">
<rect width="40" height="40" fill="white" transform="translate(0.5)"/>
</clipPath>
</defs>
</svg>
