<svg width="41" height="40" viewBox="0 0 41 40" fill="none" xmlns="http://www.w3.org/2000/svg">
<g clip-path="url(#clip0_207_11361)">
<path d="M34.0618 37.8818C33.6116 37.8818 33.1616 37.7105 32.8189 37.3679L21.0974 25.6464C20.8761 25.425 20.7542 25.1307 20.7542 24.8178C20.7542 24.5048 20.8761 24.2105 21.0974 23.9892L16.6804 19.5721C16.5827 19.4745 16.4896 19.3736 16.4007 19.2696C10.5548 18.6371 5.43131 14.949 2.96381 9.59504C2.13108 9.16652 1.36022 8.61191 0.675921 7.94129C0.444749 7.71481 0.440999 7.34387 0.667562 7.1127C0.894124 6.88152 1.26514 6.87785 1.49608 7.10434C2.27772 7.87027 3.18873 8.4634 4.18092 8.86434L9.05936 3.9877C10.2655 2.78207 11.8688 2.11816 13.5741 2.11816H20.5305C20.8541 2.11816 21.1164 2.38051 21.1164 2.7041C21.1164 3.0277 20.8541 3.29004 20.5305 3.29004H13.5741C12.1818 3.29004 10.8726 3.83215 9.88788 4.81652L5.44272 9.25996C6.05327 9.39902 6.68452 9.47051 7.32709 9.47051H7.33194C9.56248 9.46926 11.6527 8.82418 13.2175 7.6541C13.4255 7.49855 13.7112 7.49848 13.9192 7.6541C16.293 9.42918 20.1553 9.42918 22.5291 7.6541C22.7371 7.49855 23.0229 7.49855 23.2308 7.6541C24.7973 8.82543 26.8892 9.47051 29.1212 9.47051C29.7637 9.47051 30.3951 9.39902 31.0056 9.25996L26.5605 4.81652C25.5758 3.83215 24.2666 3.29004 22.8742 3.29004C22.5505 3.29004 22.2883 3.0277 22.2883 2.7041C22.2883 2.38051 22.5505 2.11816 22.8742 2.11816C24.5795 2.11816 26.183 2.78215 27.389 3.9877L32.2674 8.86434C33.2597 8.46348 34.1707 7.87027 34.9522 7.10441C35.1833 6.87793 35.5543 6.88152 35.7808 7.11277C36.0073 7.34387 36.0036 7.71488 35.7724 7.94137C35.0881 8.61199 34.3174 9.16652 33.4846 9.59504C32.077 12.6508 29.8128 15.1878 26.9269 16.9396C26.6505 17.1075 26.2901 17.0193 26.122 16.7427C25.9541 16.4661 26.0423 16.1057 26.3189 15.9378C28.6329 14.5332 30.5172 12.5863 31.8319 10.2556C30.9638 10.5104 30.0527 10.6424 29.1212 10.6424C26.7977 10.6424 24.5985 10.005 22.8772 8.8402C21.5821 9.68832 19.9476 10.1514 18.2241 10.1514C16.5006 10.1514 14.8662 9.68832 13.5711 8.8402C11.8515 10.0037 9.65428 10.6411 7.33248 10.6424C7.33084 10.6424 7.32866 10.6424 7.32702 10.6424C6.39592 10.6424 5.48561 10.5106 4.6178 10.2561C6.92295 14.3304 10.9576 17.1782 15.5698 17.9707C14.7266 16.1617 14.841 14.0629 15.7605 13.1433C16.9747 11.9291 20.2451 12.1189 22.1894 14.0632L26.6064 18.4802C27.0634 18.0234 27.8069 18.0234 28.2637 18.4802L30.2385 20.455C30.4673 20.6839 30.4673 21.0549 30.2385 21.2836C30.0096 21.5124 29.6387 21.5125 29.4098 21.2836L27.4351 19.3089L21.9261 24.8179L27.0184 29.9102L32.5275 24.4012L30.9724 22.8461C30.7436 22.6173 30.7436 22.2463 30.9724 22.0175C31.2014 21.7886 31.5723 21.7887 31.8011 22.0175L39.9851 30.2016C40.3171 30.5336 40.5 30.975 40.5 31.4446C40.5 31.9141 40.3171 32.3555 39.9851 32.6875L35.3048 37.3679C34.9621 37.7105 34.512 37.8818 34.0618 37.8818ZM29.5043 32.3961L33.6475 36.5393C33.876 36.7678 34.2477 36.7675 34.4762 36.5393L39.1564 31.8589C39.2671 31.7482 39.328 31.6011 39.328 31.4446C39.328 31.2882 39.2671 31.1411 39.1565 31.0303L35.0133 26.8871L29.5043 32.3961ZM27.847 30.7387L28.6756 31.5674L34.1847 26.0583L33.3561 25.2297L27.847 30.7387ZM18.0408 13.5444C17.3996 13.5444 16.8644 13.6965 16.5891 13.9719C15.8636 14.6975 15.9933 17.2279 17.509 18.7435L21.9259 23.1605L25.7777 19.3088L21.3607 14.8918C20.4203 13.9513 19.089 13.5444 18.0408 13.5444Z" fill="#156778"/>
</g>
<defs>
<clipPath id="clip0_207_11361">
<rect width="40" height="40" fill="white" transform="translate(0.5)"/>
</clipPath>
</defs>
</svg>
