<svg width="65" height="64" viewBox="0 0 65 64" fill="none" xmlns="http://www.w3.org/2000/svg">
<rect x="0.125" width="64" height="64" rx="32" fill="#E1F5FA"/>
<g clip-path="url(#clip0_207_11364)">
<path d="M44.2858 52.0005C43.9937 52.0005 43.7408 51.7822 43.7049 51.4849L43.4261 49.1813C43.3872 48.86 43.6161 48.568 43.9373 48.5292C44.2577 48.4905 44.5506 48.7192 44.5894 49.0404L44.8682 51.344C44.9072 51.6653 44.6782 51.9573 44.357 51.9961C44.3332 51.999 44.3093 52.0005 44.2858 52.0005ZM20.2141 52.0005C20.1906 52.0005 20.1669 51.999 20.1429 51.9961C19.8217 51.9573 19.5928 51.6653 19.6317 51.344L20.5184 44.0182L18.6787 35.418C18.611 35.1015 18.8127 34.7901 19.1291 34.7225C19.4454 34.6548 19.757 34.8563 19.8246 35.1729L21.6848 43.8689C21.6984 43.9324 21.7013 43.9975 21.6935 44.062L20.795 51.485C20.7591 51.7822 20.5063 52.0005 20.2141 52.0005ZM32.2496 49.6969C32.1663 49.6969 32.0817 49.679 32.0012 49.6414L30.7627 49.0606C30.4696 48.9232 30.3435 48.5743 30.4809 48.2813C30.6183 47.9882 30.9671 47.862 31.2602 47.9995L32.4987 48.5803C32.7917 48.7177 32.9178 49.0666 32.7805 49.3596C32.6808 49.5722 32.4698 49.6969 32.2496 49.6969ZM43.7387 47.4808C43.4466 47.4808 43.1937 47.2626 43.1578 46.9652L42.8064 44.0618C42.7986 43.9974 42.8015 43.9322 42.8151 43.8687L46.9819 24.3894C47.0202 24.2102 47.1402 24.0592 47.3061 23.9814L51.4151 22.0548C51.708 21.9175 52.0569 22.0436 52.1944 22.3366C52.3317 22.6296 52.2056 22.9785 51.9126 23.1159L48.0671 24.919L43.9816 44.0182L44.3212 46.8244C44.3601 47.1457 44.1312 47.4377 43.81 47.4765C43.7861 47.4794 43.7622 47.4808 43.7387 47.4808ZM32.25 47.0995C31.9263 47.0995 31.6641 46.8372 31.6641 46.5136V46.202L30.7627 45.7794C30.4697 45.642 30.3436 45.2931 30.4809 45.0001C30.6184 44.707 30.9672 44.5809 31.2602 44.7184L31.7061 44.9274C31.7926 44.7119 32.0036 44.5597 32.2501 44.5597C32.5737 44.5597 32.836 44.8219 32.836 45.1456V46.5137C32.8359 46.8372 32.5736 47.0995 32.25 47.0995ZM32.2496 43.1345C32.1663 43.1345 32.0817 43.1166 32.0012 43.0789L30.7627 42.4981C30.5503 42.3986 30.4256 42.1879 30.4253 41.9681C30.4252 41.8845 30.4431 41.7995 30.4809 41.7189C30.6183 41.4258 30.9671 41.2997 31.2602 41.4371L32.4987 42.0179C32.711 42.1174 32.8357 42.3281 32.836 42.548C32.8361 42.6316 32.8182 42.7165 32.7805 42.7971C32.6808 43.0098 32.4698 43.1345 32.2496 43.1345ZM32.2496 39.8532C32.1663 39.8532 32.0817 39.8353 32.0012 39.7977L30.7627 39.2169C30.4696 39.0795 30.3435 38.7306 30.4809 38.4376C30.6183 38.1445 30.9671 38.0185 31.2602 38.1558L32.4987 38.7366C32.7917 38.874 32.9178 39.2229 32.7805 39.5159C32.6808 39.7285 32.4698 39.8532 32.2496 39.8532ZM32.2496 36.572C32.1663 36.572 32.0817 36.5541 32.0012 36.5165L30.7627 35.9357C30.4696 35.7983 30.3435 35.4494 30.4809 35.1564C30.6183 34.8633 30.9671 34.7373 31.2602 34.8746L32.4987 35.4554C32.7917 35.5928 32.9178 35.9417 32.7805 36.2347C32.6808 36.4473 32.4698 36.572 32.2496 36.572ZM36.374 33.5228C36.1538 33.5228 35.9428 33.398 35.8431 33.1855C35.7057 32.8925 35.8318 32.5436 36.1249 32.4062C40.2474 30.4733 42.4814 28.3178 42.4814 22.4732C42.4814 22.2459 42.6129 22.0391 42.8186 21.9427L44.8314 20.9989C45.1242 20.8616 45.4732 20.9876 45.6107 21.2807C45.748 21.5737 45.6219 21.9226 45.3289 22.06L43.6504 22.8469C43.6051 25.6897 43.0367 27.8071 41.8716 29.4876C40.793 31.0434 39.1742 32.2708 36.6224 33.4672C36.5419 33.5049 36.4573 33.5228 36.374 33.5228ZM28.126 33.5228C28.0427 33.5228 27.9581 33.5049 27.8776 33.4673C25.3258 32.2709 23.7069 31.0435 22.6284 29.4877C21.9981 28.5785 21.5424 27.5416 21.2498 26.3311L19.6686 27.0725C19.3756 27.2099 19.0268 27.0837 18.8893 26.7907C18.752 26.4977 18.8781 26.1488 19.1711 26.0114L21.0226 25.1433C20.9979 24.9726 20.9757 24.7988 20.9563 24.6217H18.8971C18.5735 24.6217 18.3112 24.3594 18.3112 24.0358C18.3112 23.7121 18.5735 23.4498 18.8971 23.4498H20.8676C20.8588 23.2527 20.8529 23.0516 20.8497 22.847L19.1712 22.0601C18.8781 21.9227 18.7521 21.5738 18.8894 21.2808C19.0269 20.9877 19.3757 20.8616 19.6687 20.999L21.6815 21.9427C21.8873 22.0392 22.0187 22.246 22.0187 22.4733C22.0187 28.3179 24.2527 30.4733 28.3752 32.4063C28.6682 32.5437 28.7943 32.8926 28.657 33.1855C28.5571 33.398 28.3461 33.5228 28.126 33.5228ZM18.7465 33.5228C18.476 33.5228 18.233 33.3344 18.1742 33.0593L16.4329 24.919L12.5873 23.116C12.2943 22.9786 12.1682 22.6297 12.3055 22.3367C12.443 22.0436 12.7918 21.9176 13.0848 22.0549L17.1938 23.9815C17.3597 24.0593 17.4797 24.2103 17.518 24.3895L19.3201 32.8142C19.3878 33.1306 19.1861 33.442 18.8696 33.5097C18.8284 33.5185 18.7871 33.5228 18.7465 33.5228ZM32.2496 33.2908C32.1663 33.2908 32.0817 33.2729 32.0012 33.2352L30.7627 32.6545C30.4696 32.517 30.3435 32.1681 30.4809 31.8752C30.6183 31.582 30.9671 31.4559 31.2602 31.5934L32.4987 32.1741C32.7917 32.3116 32.9178 32.6605 32.7805 32.9534C32.6808 33.1661 32.4698 33.2908 32.2496 33.2908ZM32.25 31.0194C31.9263 31.0194 31.6641 30.7571 31.6641 30.4335V29.6396L30.7627 29.2171C30.4697 29.0796 30.3436 28.7307 30.4809 28.4378C30.6184 28.1446 30.9672 28.0186 31.2602 28.156L31.6641 28.3453V26.2022L30.7628 25.7796C30.4698 25.6422 30.3437 25.2933 30.481 25.0003C30.6184 24.7072 30.9673 24.5811 31.2603 24.7185L31.6642 24.9079V24.0358C31.6642 23.7121 31.9265 23.4498 32.2501 23.4498C32.5738 23.4498 32.8361 23.7121 32.8361 24.0358V30.4335C32.8359 30.7571 32.5736 31.0194 32.25 31.0194ZM29.4371 30.8689C29.3538 30.8689 29.2692 30.851 29.1887 30.8134L27.9502 30.2326C27.6571 30.0952 27.531 29.7463 27.6684 29.4533C27.8058 29.1602 28.1546 29.0341 28.4477 29.1715L29.6863 29.7523C29.9792 29.8897 30.1053 30.2386 29.968 30.5316C29.8684 30.7442 29.6573 30.8689 29.4371 30.8689ZM26.6246 28.4471C26.5414 28.4471 26.4568 28.4292 26.3762 28.3915L25.1377 27.8107C24.8447 27.6733 24.7186 27.3244 24.8559 27.0314C24.9933 26.7383 25.3422 26.6122 25.6352 26.7497L26.8738 27.3304C27.1668 27.4679 27.2928 27.8168 27.1555 28.1097C27.0559 28.3224 26.8448 28.4471 26.6246 28.4471ZM29.4371 27.4314C29.3538 27.4314 29.2692 27.4136 29.1887 27.3759L27.9502 26.7951C27.6571 26.6577 27.531 26.3088 27.6684 26.0158C27.8058 25.7227 28.1546 25.5967 28.4477 25.734L29.6863 26.3148C29.9792 26.4522 30.1053 26.8011 29.968 27.0941C29.8684 27.3068 29.6573 27.4314 29.4371 27.4314ZM26.6246 25.0096C26.5414 25.0096 26.4568 24.9917 26.3762 24.954L25.1377 24.3733C24.8447 24.2358 24.7186 23.8869 24.8559 23.594C24.9933 23.3008 25.3422 23.1747 25.6352 23.3122L26.8738 23.893C27.1668 24.0304 27.2928 24.3793 27.1555 24.6722C27.0559 24.8849 26.8448 25.0096 26.6246 25.0096ZM29.4371 23.994C29.3538 23.994 29.2692 23.9761 29.1887 23.9384L27.9502 23.3576C27.6571 23.2202 27.531 22.8713 27.6684 22.5784C27.8058 22.2852 28.1546 22.1591 28.4477 22.2966L29.6863 22.8773C29.9792 23.0148 30.1053 23.3637 29.968 23.6566C29.8684 23.8693 29.6573 23.994 29.4371 23.994ZM35.0629 20.9565C34.8426 20.9565 34.6316 20.8317 34.5319 20.6191C34.3946 20.3262 34.5207 19.9773 34.8137 19.8399L37.3053 18.6717C36.9659 18.2256 36.7752 17.6749 36.7752 17.0999V12.5866C36.7752 12.263 37.0375 12.0007 37.3611 12.0007C37.6848 12.0007 37.9471 12.263 37.9471 12.5866V17.1C37.9471 17.3562 38.0161 17.6036 38.1419 17.8186C39.1839 15.6913 41.1117 14.1147 43.4414 13.5269C43.7553 13.4476 44.0736 13.6379 44.1529 13.9517C44.232 14.2655 44.0418 14.584 43.728 14.6632C41.4887 15.2282 39.6836 16.8603 38.8994 19.0291C38.8466 19.1752 38.7378 19.2944 38.5971 19.3603L35.3111 20.901C35.2307 20.9387 35.1461 20.9565 35.0629 20.9565ZM29.4371 20.9565C29.3538 20.9565 29.2692 20.9386 29.1888 20.9009L25.9027 19.3603C25.762 19.2942 25.6532 19.1751 25.6004 19.029C24.3008 15.4349 20.3196 13.5684 16.7255 14.8678C16.5793 14.9206 16.4181 14.9132 16.2775 14.8473L12.5873 13.1172C12.2943 12.9797 12.1682 12.6308 12.3055 12.3379C12.443 12.0448 12.7918 11.9187 13.0848 12.0561L16.56 13.6855C20.4192 12.4198 24.6008 14.2269 26.3582 17.8183C26.4839 17.6034 26.5529 17.356 26.5529 17.0999V12.5866C26.5529 12.263 26.8152 12.0007 27.1389 12.0007C27.4625 12.0007 27.7248 12.263 27.7248 12.5866V17.1C27.7248 17.6749 27.5341 18.2256 27.1946 18.6717L29.6863 19.8399C29.9793 19.9774 30.1054 20.3263 29.9681 20.6192C29.8684 20.8318 29.6573 20.9565 29.4371 20.9565ZM47.9737 14.9028C47.9064 14.9028 47.8389 14.8912 47.7744 14.8679C47.1564 14.6444 46.5141 14.5097 45.8653 14.4674C45.5423 14.4463 45.2975 14.1675 45.3186 13.8446C45.3397 13.5215 45.6207 13.2767 45.9414 13.2979C46.6191 13.3421 47.2902 13.4723 47.9399 13.6855L51.4151 12.0561C51.7081 11.9187 52.0569 12.0448 52.1944 12.3379C52.3318 12.6308 52.2057 12.9797 51.9126 13.1172L48.2224 14.8474C48.1438 14.8843 48.0588 14.9028 47.9737 14.9028Z" fill="#156778"/>
</g>
<defs>
<clipPath id="clip0_207_11364">
<rect width="40" height="40" fill="white" transform="translate(12.25 12)"/>
</clipPath>
</defs>
</svg>
