<svg width="41" height="40" viewBox="0 0 41 40" fill="none" xmlns="http://www.w3.org/2000/svg">
<g clip-path="url(#clip0_207_11335)">
<path d="M7.67105 37.8393H1.33617C1.01237 37.8393 0.75 37.5769 0.75 37.2531C0.75 36.9293 1.01237 36.6669 1.33617 36.6669H7.67105C11.5181 36.6669 14.4334 36.2122 16.5835 35.2768C18.3949 34.4888 19.712 33.3622 20.6682 31.7696H13.6963C11.4538 31.7696 9.70499 29.8649 9.4742 27.263H1.33617C1.01237 27.263 0.75 27.0006 0.75 26.6768C0.75 26.353 1.01237 26.0907 1.33617 26.0907H10.0345C12.8782 26.0907 15.3688 25.089 17.237 23.1939L21.5614 18.7974L19.0104 16.2291C18.8739 16.0917 18.8141 15.8956 18.8507 15.7053C18.8873 15.515 19.0156 15.3552 19.1934 15.2781C19.7409 15.0411 20.2595 14.8187 20.7535 14.6067C23.0159 13.6362 24.803 12.8696 26.4506 11.9393C26.7325 11.7804 27.0902 11.8797 27.2493 12.1616C27.4084 12.4435 27.309 12.801 27.027 12.9603C25.3239 13.9219 23.511 14.6995 21.2158 15.6842C20.9665 15.7911 20.711 15.9007 20.4487 16.0135L26.8684 22.4768C29.6143 16.1658 31.1151 13.2076 36.1084 8.21429L39.2844 5.03833C39.4853 4.83739 39.5918 4.55931 39.5764 4.27529C39.5609 3.98752 39.4269 3.7282 39.1992 3.545C38.8091 3.23128 38.2103 3.2788 37.8359 3.65325L34.66 6.8292C32.4943 8.99484 30.7791 10.4839 29.0984 11.6573C28.8328 11.8428 28.4674 11.7777 28.2822 11.5123C28.0969 11.2469 28.1618 10.8815 28.4272 10.6961C30.0494 9.56358 31.7159 8.11535 33.8309 6.00028L37.0067 2.82409C37.8116 2.01939 39.07 1.93662 39.9337 2.63143C40.4172 3.02026 40.7136 3.59635 40.7468 4.21191C40.7801 4.82786 40.5492 5.43122 40.1133 5.86718L36.9371 9.04322C31.8912 14.0892 30.5093 17.017 27.5997 23.7362C27.5224 23.9146 27.3616 24.0432 27.1705 24.0793C26.9796 24.1151 26.7828 24.0544 26.6458 23.9164L24.0397 21.2926C23.3497 21.9918 21.6783 23.6821 19.7047 25.6558C19.555 25.8055 19.41 25.9505 19.2697 26.0907H23.9004C24.6375 26.0907 25.2373 26.6897 25.2376 27.426C25.2379 28.5128 24.9494 29.5352 24.4253 30.3052C23.8437 31.1593 23.017 31.6544 22.019 31.7518C19.8189 36.0141 15.4986 37.8393 7.67105 37.8393ZM10.6528 27.2478C10.8462 28.9516 11.9068 30.5972 13.6962 30.5972H21.6352C21.6431 30.597 21.6509 30.597 21.6588 30.5972C22.4237 30.594 23.0283 30.2737 23.4563 29.6452C23.8436 29.0764 24.0656 28.2676 24.0653 27.4263C24.0653 27.3362 23.9913 27.2629 23.9004 27.2629H18.0966C16.625 28.7327 15.9372 29.4166 15.9283 29.4254C15.6988 29.6537 15.3276 29.6526 15.0994 29.423C14.8711 29.1934 14.8722 28.8222 15.1018 28.5941C15.1128 28.5831 16.1658 27.5361 18.4612 25.2412L17.6457 24.4255C15.7676 26.1291 13.3227 27.1158 10.6528 27.2478ZM18.48 23.6019L19.2902 24.4121C21.0869 22.6129 22.5783 21.1045 23.2136 20.4607L22.3876 19.629L18.48 23.6019Z" fill="#156778"/>
</g>
<defs>
<clipPath id="clip0_207_11335">
<rect width="40" height="40" fill="white" transform="translate(0.75)"/>
</clipPath>
</defs>
</svg>
