<svg width="41" height="40" viewBox="0 0 41 40" fill="none" xmlns="http://www.w3.org/2000/svg">
<g clip-path="url(#clip0_207_11356)">
<path d="M28.1608 39.3994C25.0477 39.3994 21.9693 38.8301 19.0112 37.7071C16.1866 36.6347 13.2481 36.0909 10.2776 36.0909C7.30715 36.0909 4.36865 36.6346 1.54398 37.7071C1.36375 37.7755 1.16171 37.7509 1.00319 37.6415C0.844751 37.5321 0.750061 37.3518 0.750061 37.1592V22.0111C0.750061 21.7677 0.900533 21.5497 1.12804 21.4633C6.48979 19.4278 12.2102 19.2212 17.671 20.866C17.9808 20.9593 18.1564 21.2862 18.0631 21.596C17.9697 21.9059 17.6428 22.0813 17.333 21.9881C12.2501 20.4572 6.93012 20.6073 1.92188 22.4188V36.3243C4.63514 35.3915 7.442 34.919 10.2775 34.919C13.3906 34.919 16.469 35.4884 19.4271 36.6114C22.2518 37.6838 25.1904 38.2275 28.1607 38.2275C30.9991 38.2275 33.8078 37.7312 36.5164 36.7515V22.846C33.8566 23.7604 31.1056 24.2326 28.3263 24.2507C25.2713 24.2713 22.2439 23.7414 19.33 22.6775C19.026 22.5666 18.8695 22.2302 18.9805 21.9262C19.0915 21.6223 19.4275 21.4657 19.7319 21.5766C22.5141 22.5924 25.4027 23.0975 28.3186 23.0788C31.2353 23.0597 34.1206 22.5162 36.8944 21.4632C37.0747 21.3948 37.2767 21.4194 37.4351 21.5288C37.5936 21.6381 37.6883 21.8184 37.6883 22.011V37.1592C37.6883 37.4025 37.5378 37.6206 37.3103 37.707C34.3523 38.8301 31.2739 39.3994 28.1608 39.3994ZM25.7397 35.2987C25.4299 35.2987 25.1137 35.2883 24.7918 35.2672C22.7555 35.134 20.81 34.4836 19.0112 33.8007C17.2213 33.1213 15.3705 32.4186 13.5296 32.1695L13.0286 32.1021C11.0771 31.8402 9.39157 31.614 8.16327 31.1347C6.67081 30.5522 5.94533 29.611 5.94533 28.2569C5.94533 27.2478 6.35635 26.3295 7.13387 25.6011C8.48109 24.3392 10.8544 23.72 13.6464 23.9031C15.6826 24.0364 17.6282 24.6867 19.4271 25.3696C21.2169 26.0491 23.0676 26.7517 24.9088 27.0008C25.2294 27.0442 25.4542 27.3393 25.4109 27.6601C25.3675 27.9807 25.0732 28.2057 24.7517 28.1621C22.7773 27.895 20.8628 27.1681 19.0112 26.4652C17.2974 25.8146 15.4521 25.1956 13.5699 25.0724C11.1004 24.9108 9.04657 25.4152 7.93506 26.4564C7.39239 26.9647 7.11723 27.5704 7.11723 28.2569C7.11723 30.0432 9.19766 30.4055 13.1845 30.9405L13.6867 31.0081C15.6608 31.2752 17.5754 32.0021 19.4272 32.705C21.1408 33.3556 22.9861 33.9746 24.8685 34.0978C27.3381 34.2595 29.3917 33.755 30.5033 32.7138C31.0459 32.2055 31.3211 31.5997 31.3211 30.9133C31.3211 29.5817 30.236 28.9669 27.0209 28.4769C26.7009 28.4281 26.4812 28.1292 26.5299 27.8094C26.5787 27.4893 26.8784 27.27 27.1974 27.3183C29.8769 27.7267 32.493 28.3407 32.493 30.9133C32.493 31.9224 32.082 32.8408 31.3044 33.5692C30.1126 34.6856 28.1171 35.2987 25.7397 35.2987V35.2987ZM19.5264 19.5654C19.5248 19.5654 19.5233 19.5654 19.5216 19.5654C19.1994 19.5629 18.9398 19.3005 18.9404 18.9786C18.9404 18.9774 18.9404 18.9761 18.9404 18.9749L18.9885 12.8812C19.0147 12.3521 18.8529 12.0646 18.2865 11.7482L16.079 10.5144C13.5391 9.09489 12.5856 5.88748 13.9535 3.36438C14.6314 2.11404 15.7565 1.20746 17.1216 0.811666C18.4872 0.415877 19.9222 0.579786 21.163 1.27324C22.3972 1.9631 23.164 3.26992 23.164 4.68394V5.0766L31.2082 9.5724C31.4906 9.7303 31.5917 10.0873 31.4338 10.3698C31.2759 10.6522 30.919 10.7533 30.6365 10.5954L23.164 6.41913V10.4466C28.7019 13.5417 36.5744 17.9416 36.963 18.1587C37.809 18.6315 38.8823 18.3278 39.3551 17.4818C39.828 16.6357 39.5243 15.5626 38.6782 15.0897L32.6064 11.6963C32.3239 11.5384 32.2229 11.1814 32.3807 10.8989C32.5386 10.6164 32.8954 10.5154 33.1781 10.6733L39.2499 14.0666C40.6601 14.8549 41.1662 16.6433 40.378 18.0534C39.5898 19.4636 37.8014 19.9697 36.3912 19.1815C35.9989 18.9622 27.9705 14.4752 22.4253 11.3762H21.6864C20.8843 11.3762 20.1602 12.0663 20.1602 12.9052L20.1122 18.984C20.1097 19.3061 19.8478 19.5654 19.5264 19.5654V19.5654ZM18.5968 1.77286C18.2132 1.77286 17.8271 1.82724 17.4479 1.93724C16.3863 2.24506 15.5111 2.95023 14.9838 3.92298C13.92 5.88521 14.6678 8.38316 16.6508 9.49138L18.8583 10.7252C19.1373 10.8811 19.3709 11.0545 19.5598 11.2467C19.8505 10.8746 20.2361 10.5802 20.6793 10.4004C18.7432 9.31826 17.3783 8.5555 17.2222 8.46824C16.5391 8.08651 16.0455 7.4615 15.8324 6.70851C15.6194 5.95553 15.7123 5.16457 16.0941 4.48151C16.8823 3.07132 18.6708 2.56522 20.0809 3.35344L20.6441 3.66821C20.9265 3.82611 21.0275 4.18307 20.8697 4.46557C20.7119 4.74808 20.3549 4.84917 20.0724 4.6912L19.5092 4.37651C18.6632 3.90361 17.5901 4.20721 17.1171 5.05332C16.888 5.46317 16.8322 5.93771 16.9601 6.38952C17.088 6.84133 17.3841 7.21634 17.794 7.4454C17.9694 7.54345 19.6696 8.49363 21.9922 9.7917V4.68394C21.9922 3.69407 21.4554 2.77913 20.5913 2.29623C19.9708 1.94943 19.2876 1.77286 18.5968 1.77286V1.77286Z" fill="#156778"/>
</g>
<defs>
<clipPath id="clip0_207_11356">
<rect width="40" height="40" fill="white" transform="translate(0.75)"/>
</clipPath>
</defs>
</svg>
